# xmcd
#
# Track frame offsets:
#	150
#	2867
#	28974
#	50303
#	66130
#	86830
#	109112
#	127849
#	152718
#	174178
#	194760
#
# Disc length: 2880 seconds
#
# Revision: 0
# Processed by: cddbd v1.5.1PL0 Copyright (c) Steve Scherf et al.
# Submitted via: dBpowerAMP V4.0
#
DISCID=8e0b3e0b
DTITLE=Zucchero - Bluesugar
DYEAR=1998
DGENRE=Blues
TTITLE0=You make me feel loved
TTITLE1=Blu
TTITLE2=Arcord
TTITLE3=Puro amore
TTITLE4=Back 2 you
TTITLE5=Donkey tonkey
TTITLE6=X sempre tuo
TTITLE7=Eccetera eccetera
TTITLE8=Karma stai kalma
TTITLE9=Dopo di noi
TTITLE10=I tempi cambieranno
EXTD=
EXTT0=
EXTT1=
EXTT2=
EXTT3=
EXTT4=
EXTT5=
EXTT6=
EXTT7=
EXTT8=
EXTT9=
EXTT10=
PLAYORDER=
